<?xml version="1.0" encoding="UTF-8" standalone="no"?>
<!DOCTYPE svg PUBLIC "-//W3C//DTD SVG 1.0//EN"
 "http://www.w3.org/TR/2001/REC-SVG-20010904/DTD/svg10.dtd" [
 <!ATTLIST svg xmlns:xlink CDATA #FIXED "http://www.w3.org/1999/xlink">
]>
<!-- Generated by dot version 2.6 (Sun Aug 28 13:14:52 UTC 2005)
     For user: Bill Gates -->
<!-- Title: untitl Pages: 1 -->
<svg width="324pt" height="150pt"
 viewBox = "0 0 324 150"
 xmlns="http://www.w3.org/2000/svg" xmlns:xlink="http://www.w3.org/1999/xlink">
<g id="graph0" class="graph" style="font-family:Times-Roman;font-size:14.00;">
<title>untitl</title>
<!-- A -->
<g id="node1" class="node"><title>A</title>
<ellipse style="fill:pink;stroke:black;stroke-width:2;" cx="24" cy="101" rx="19" ry="19"/>
<text text-anchor="middle" x="24" y="106" style="font-family:Helvetica-Bold;">A</text>
</g>
<!-- B -->
<g id="node3" class="node"><title>B</title>
<ellipse style="fill:pink;stroke:black;stroke-width:2;" cx="106" cy="75" rx="17" ry="18"/>
<text text-anchor="middle" x="106" y="80" style="font-family:Helvetica-Bold;">B</text>
</g>
<!-- A&#45;&gt;B -->
<g id="edge2" class="edge"><title>A&#45;&gt;B</title>
<path style="fill:none;stroke:red;stroke-width:3;" d="M42,95C53,92 67,88 78,84"/>
<polygon style="fill:red;stroke:red;" points="77,81 88,81 79,87 77,81"/>
<text text-anchor="middle" x="65" y="86" style="font-family:Helvetica-Bold;">3</text>
</g>
<!-- D -->
<g id="node10" class="node"><title>D</title>
<ellipse style="fill:pink;stroke:black;stroke-width:2;" cx="162" cy="126" rx="19" ry="19"/>
<text text-anchor="middle" x="162" y="131" style="font-family:Helvetica-Bold;">D</text>
</g>
<!-- A&#45;&gt;D -->
<g id="edge10" class="edge"><title>A&#45;&gt;D</title>
<path style="fill:none;stroke:black;stroke-width:3;" d="M42,107C48,108 55,110 61,111 86,116 113,120 133,123"/>
<polygon style="fill:black;stroke:black;" points="133,120 143,124 133,126 133,120"/>
<text text-anchor="middle" x="65" y="108" style="font-family:Helvetica-Bold;">2</text>
</g>
<!-- C -->
<g id="node5" class="node"><title>C</title>
<ellipse style="fill:pink;stroke:black;stroke-width:2;" cx="300" cy="75" rx="19" ry="19"/>
<text text-anchor="middle" x="300" y="80" style="font-family:Helvetica-Bold;">C</text>
</g>
<!-- B&#45;&gt;C -->
<g id="edge4" class="edge"><title>B&#45;&gt;C</title>
<path style="fill:none;stroke:black;stroke-width:3;" d="M122,65C128,61 136,58 143,55 183,43 196,43 237,48 249,50 252,51 263,55 267,57 271,59 275,60"/>
<polygon style="fill:black;stroke:black;" points="277,57 284,65 274,63 277,57"/>
<text text-anchor="middle" x="218" y="42" style="font-family:Helvetica-Bold;">2</text>
</g>
<!-- E -->
<g id="node7" class="node"><title>E</title>
<ellipse style="fill:pink;stroke:black;stroke-width:2;" cx="218" cy="75" rx="17" ry="18"/>
<text text-anchor="middle" x="218" y="80" style="font-family:Helvetica-Bold;">E</text>
</g>
<!-- B&#45;&gt;E -->
<g id="edge6" class="edge"><title>B&#45;&gt;E</title>
<path style="fill:none;stroke:red;stroke-width:3;" d="M125,75C143,75 169,75 189,75"/>
<polygon style="fill:red;stroke:red;" points="189,71 199,75 189,78 189,71"/>
<text text-anchor="middle" x="162" y="72" style="font-family:Helvetica-Bold;">1</text>
</g>
<!-- E&#45;&gt;C -->
<g id="edge8" class="edge"><title>E&#45;&gt;C</title>
<path style="fill:none;stroke:red;stroke-width:3;" d="M237,75C247,75 259,75 271,75"/>
<polygon style="fill:red;stroke:red;" points="271,71 281,75 271,78 271,71"/>
<text text-anchor="middle" x="259" y="72" style="font-family:Helvetica-Bold;">3</text>
</g>
<!-- D&#45;&gt;C -->
<g id="edge12" class="edge"><title>D&#45;&gt;C</title>
<path style="fill:none;stroke:black;stroke-width:3;" d="M181,126C197,126 219,124 237,118 251,113 266,103 278,94"/>
<polygon style="fill:black;stroke:black;" points="276,91 286,88 280,97 276,91"/>
<text text-anchor="middle" x="218" y="115" style="font-family:Helvetica-Bold;">3</text>
</g>
</g>
</svg>
