<?xml version="1.0" encoding="utf-8"?>
<!DOCTYPE svg PUBLIC "-//W3C//DTD SVG 1.1//EN" "http://www.w3.org/Graphics/SVG/1.1/DTD/svg11.dtd">
<svg version="1.1" xmlns="http://www.w3.org/2000/svg" xmlns:xlink="http://www.w3.org/1999/xlink" x="0px" y="0px" width="324px"
	 height="324px" viewBox="0 0 324 324" enable-background="new 0 0 324 324" xml:space="preserve">
<g id="Layer_1">
</g>
<g id="Layer_2">
	<polyline fill="none" stroke="#000000" points="126,234 162,162 198,234 	"/>
	<polyline fill="none" stroke="#000000" points="54,234 162,162 270,234 	"/>
	<polyline fill="none" stroke="#000000" points="270,234 234,162 126,234 	"/>
	<polyline fill="none" stroke="#000000" points="54,234 90,162 198,234 	"/>
	<polyline fill="none" stroke="#000000" points="198,90 162,162 126,90 	"/>
	<polyline fill="none" stroke="#000000" points="270,90 162,162 54,90 	"/>
	<polyline fill="none" stroke="#000000" points="54,90 90,162 198,90 	"/>
	<polyline fill="none" stroke="#000000" points="270,90 234,162 126,90 	"/>
	<polygon fill="none" stroke="#000000" points="162,18 54,90 18,162 126,90 	"/>
	<polygon fill="none" stroke="#000000" points="270,90 162,18 198,90 306,162 	"/>
	<polygon fill="none" stroke="#000000" points="162,306 270,234 306,162 198,234 	"/>
	<polygon fill="none" stroke="#000000" points="54,234 162,306 126,234 18,162 	"/>
	<circle fill="#76B3DF" stroke="#000000" cx="54" cy="234" r="9"/>
	<circle fill="#76B3DF" stroke="#000000" cx="126" cy="234" r="9"/>
	<circle fill="#76B3DF" stroke="#000000" cx="198" cy="234" r="9"/>
	<circle fill="#76B3DF" stroke="#000000" cx="270" cy="234" r="9"/>
	<circle fill="#76B3DF" stroke="#000000" cx="53.999" cy="90" r="9"/>
	<circle fill="#76B3DF" stroke="#000000" cx="125.999" cy="90" r="9"/>
	<circle fill="#76B3DF" stroke="#000000" cx="197.999" cy="90" r="9"/>
	<circle fill="#76B3DF" stroke="#000000" cx="270" cy="90" r="9"/>
	<circle fill="#76B3DF" stroke="#000000" cx="162" cy="306" r="9"/>
	<circle fill="#76B3DF" stroke="#000000" cx="162" cy="18" r="9"/>
	<circle fill="#FF0000" stroke="#000000" cx="162" cy="162" r="9"/>
	<circle fill="#76B3DF" stroke="#000000" cx="90" cy="162" r="9"/>
	<circle fill="#76B3DF" stroke="#000000" cx="18" cy="162" r="9"/>
	<circle fill="#76B3DF" stroke="#000000" cx="234" cy="162" r="9"/>
	<circle fill="#76B3DF" stroke="#000000" cx="306" cy="162" r="9"/>
</g>
</svg>
