<?xml version="1.0" encoding="UTF-8" standalone="no"?>
<!-- Generator: Adobe Illustrator 11 Build 196, SVG Export Plug-In  -->

<svg
   xmlns:dc="http://purl.org/dc/elements/1.1/"
   xmlns:cc="http://creativecommons.org/ns#"
   xmlns:rdf="http://www.w3.org/1999/02/22-rdf-syntax-ns#"
   xmlns:svg="http://www.w3.org/2000/svg"
   xmlns="http://www.w3.org/2000/svg"
   xmlns:sodipodi="http://sodipodi.sourceforge.net/DTD/sodipodi-0.dtd"
   xmlns:inkscape="http://www.inkscape.org/namespaces/inkscape"
   width="282.90985"
   height="169"
   viewBox="-5.5 -5.5 282.90985 169"
   xml:space="preserve"
   id="svg2"
   version="1.1"
   inkscape:version="0.48.1 "
   sodipodi:docname="UndirectedDegrees.svg"><metadata
   id="metadata52"><rdf:RDF><cc:Work
       rdf:about=""><dc:format>image/svg+xml</dc:format><dc:type
         rdf:resource="http://purl.org/dc/dcmitype/StillImage" /></cc:Work></rdf:RDF></metadata><sodipodi:namedview
   pagecolor="#ffffff"
   bordercolor="#666666"
   borderopacity="1"
   objecttolerance="10"
   gridtolerance="10"
   guidetolerance="10"
   inkscape:pageopacity="0"
   inkscape:pageshadow="2"
   inkscape:window-width="1366"
   inkscape:window-height="716"
   id="namedview50"
   showgrid="false"
   fit-margin-top="12"
   fit-margin-left="12"
   fit-margin-right="12"
   fit-margin-bottom="12"
   inkscape:zoom="1.6691775"
   inkscape:cx="217.00602"
   inkscape:cy="60.536102"
   inkscape:window-x="-8"
   inkscape:window-y="-8"
   inkscape:window-maximized="0"
   inkscape:current-layer="svg2" />
	<defs
   id="defs4">
	
		
		
		
		
		
		
		
		 
		 
		 
		 
		 
		 
		 
		
		
		
		
		
		
		
	</defs>
	<line
   style="fill:none;stroke:#000000"
   id="line8"
   y2="61"
   x2="97"
   y1="25"
   x1="25" /><line
   style="fill:none;stroke:#000000"
   id="line10"
   y2="25"
   x2="169"
   y1="61"
   x1="97" /><line
   style="fill:none;stroke:#000000"
   id="line12"
   y2="97"
   x2="205"
   y1="25"
   x1="169" /><line
   style="fill:none;stroke:#000000"
   id="line14"
   y2="133"
   x2="133"
   y1="97"
   x1="205" /><line
   style="fill:none;stroke:#000000"
   id="line16"
   y2="61"
   x2="97"
   y1="133"
   x1="133" /><line
   style="fill:none;stroke:#000000"
   id="line18"
   y2="97"
   x2="205"
   y1="37"
   x1="235" /><line
   style="fill:none;stroke:#000000"
   id="line20"
   y2="25"
   x2="169"
   y1="37"
   x1="235" /><circle
   style="fill:#f2f2f2;stroke:#000000"
   sodipodi:ry="18"
   sodipodi:rx="18"
   sodipodi:cy="18.5"
   sodipodi:cx="162.5"
   id="circle22"
   r="18"
   cy="18.5"
   cx="162.5"
   transform="translate(6.5,6.5)" /><circle
   style="fill:#f2f2f2;stroke:#000000"
   sodipodi:ry="18"
   sodipodi:rx="18"
   sodipodi:cy="54.5"
   sodipodi:cx="90.5"
   id="circle24"
   r="18"
   cy="54.5"
   cx="90.5"
   transform="translate(6.5,6.5)" /><path
   sodipodi:type="arc"
   style="fill:none;stroke:#1a1a1a;stroke-width:1.48401237;stroke-linecap:butt;stroke-linejoin:miter;stroke-miterlimit:4;stroke-opacity:1;stroke-dasharray:none;stroke-dashoffset:0"
   id="path3050"
   sodipodi:cx="251.63219"
   sodipodi:cy="127.60919"
   sodipodi:rx="46.620689"
   sodipodi:ry="23.011494"
   d="m 298.25288,127.60919 a 46.620689,23.011494 0 1 1 -93.24138,0 46.620689,23.011494 0 1 1 93.24138,0 z"
   transform="matrix(0.59671995,0.31304565,-0.31304565,0.59671995,125.95941,-38.562982)" /><circle
   style="fill:#f2f2f2;stroke:#000000"
   sodipodi:ry="18"
   sodipodi:rx="18"
   sodipodi:cy="90.5"
   sodipodi:cx="198.5"
   id="circle26"
   r="18"
   cy="90.5"
   cx="198.5"
   transform="translate(6.5,6.5)" /><circle
   style="fill:#f2f2f2;stroke:#000000"
   sodipodi:ry="18"
   sodipodi:rx="18"
   sodipodi:cy="30.5"
   sodipodi:cx="228.5"
   id="circle28"
   r="18"
   cy="30.5"
   cx="228.5"
   transform="translate(6.5,6.5)" /><circle
   style="fill:#f2f2f2;stroke:#000000"
   sodipodi:ry="18"
   sodipodi:rx="18"
   sodipodi:cy="126.5"
   sodipodi:cx="126.5"
   id="circle30"
   r="18"
   cy="126.5"
   cx="126.5"
   transform="translate(6.5,6.5)" /><circle
   style="fill:#f2f2f2;stroke:#000000"
   sodipodi:ry="18"
   sodipodi:rx="18"
   sodipodi:cy="18.5"
   sodipodi:cx="18.5"
   id="circle32"
   r="18"
   cy="18.5"
   cx="18.5"
   transform="translate(6.5,6.5)" /><circle
   style="fill:#f2f2f2;stroke:#000000"
   sodipodi:ry="18"
   sodipodi:rx="18"
   sodipodi:cy="108.5"
   sodipodi:cx="36.5"
   id="circle34"
   r="18"
   cy="108.5"
   cx="36.5"
   transform="translate(6.5,6.5)" /><path
   inkscape:connector-curvature="0"
   id="path44"
   d="M 229.92383,44.042969 V 42.74707 l 1.65625,-1.60791 c 3.98437,-3.79248 5.80859,-5.808105 5.80859,-8.160156 0,-1.583984 -0.74414,-3.04834 -3.07226,-3.04834 -1.41602,0 -2.5918,0.720215 -3.3125,1.320312 l -0.67188,-1.488281 c 1.05664,-0.887695 2.61621,-1.583984 4.41602,-1.583984 3.33593,0 4.75195,2.304199 4.75195,4.536133 0,2.879883 -2.08789,5.208008 -5.37598,8.375977 l -1.22363,1.152344 v 0.04785 h 6.98437 v 1.751953 h -9.96093 z" /><path
   inkscape:connector-curvature="0"
   id="path46"
   d="m 127.92432,140.04297 v -1.2959 l 1.65576,-1.6084 c 3.98437,-3.79199 5.80859,-5.80761 5.80859,-8.16015 0,-1.58399 -0.74414,-3.04785 -3.07226,-3.04785 -1.41602,0 -2.59229,0.71972 -3.31202,1.32031 l -0.67236,-1.48828 c 1.05615,-0.8877 2.61621,-1.58399 4.41602,-1.58399 3.33594,0 4.75195,2.30371 4.75195,4.53614 0,2.87988 -2.08789,5.208 -5.37598,8.37597 l -1.22363,1.15235 v 0.0479 h 6.98437 v 1.75195 h -9.96044 z" /><path
   inkscape:connector-curvature="0"
   id="path48"
   d="m 42.89209,122.30664 c -3.047852,0 -5.135742,-2.85547 -5.184082,-8.01562 0,-5.25586 2.280273,-8.11231 5.448242,-8.11231 3.26416,0 5.160156,2.92871 5.160156,7.89551 0,5.30469 -1.992188,8.23242 -5.399902,8.23242 h -0.02441 z m 0.09619,-1.63183 c 2.13623,0 3.167969,-2.52051 3.167969,-6.50391 0,-3.83984 -0.959961,-6.36035 -3.167969,-6.36035 -1.919922,0 -3.167969,2.44824 -3.167969,6.36035 -0.04785,4.05566 1.200195,6.50391 3.144043,6.50391 h 0.02393 z" />
<g
   style="font-size:22px;font-style:normal;font-weight:normal;line-height:125%;letter-spacing:0px;word-spacing:0px;fill:#000000;fill-opacity:1;stroke:none;font-family:Bitstream Vera Sans"
   id="text3820"><path
     d="m 199.7793,100.50732 2.03027,-0.17188 c 0.15039,0.98829 0.49951,1.73129 1.04736,2.22901 0.54785,0.49772 1.20849,0.74658 1.98194,0.74658 0.93098,0 1.71874,-0.35091 2.36328,-1.05274 0.64452,-0.70182 0.96679,-1.63281 0.9668,-2.792966 -1e-5,-1.102858 -0.30975,-1.972974 -0.9292,-2.610351 -0.61948,-0.637362 -1.43051,-0.956046 -2.43311,-0.956055 -0.62305,9e-6 -1.18523,0.141448 -1.68652,0.424317 -0.50131,0.282885 -0.89519,0.64991 -1.18164,1.101074 l -1.81543,-0.236328 1.52539,-8.088868 7.83105,0 0,1.847657 -6.28418,0 -0.84863,4.232422 c 0.94531,-0.658844 1.93717,-0.988271 2.97559,-0.988282 1.37499,1.1e-5 2.53514,0.476247 3.48046,1.428711 0.94531,0.952482 1.41796,2.17709 1.41797,3.673828 -1e-5,1.425131 -0.41537,2.656901 -1.24609,3.695311 -1.00978,1.27474 -2.38835,1.91211 -4.13574,1.91211 -1.4323,0 -2.60141,-0.40104 -3.50733,-1.20312 -0.90592,-0.80209 -1.42334,-1.86556 -1.55224,-3.19043 z"
     style=""
     id="path3841" /></g><g
   style="font-size:22px;font-style:normal;font-weight:normal;line-height:125%;letter-spacing:0px;word-spacing:0px;fill:#000000;fill-opacity:1;stroke:none;font-family:Bitstream Vera Sans"
   id="text3828"><path
     d="m 91.84375,64.609375 1.933594,-0.257813 c 0.222002,1.095707 0.599768,1.885257 1.133301,2.368653 0.533524,0.4834 1.183425,0.725099 1.949707,0.725097 0.909498,2e-6 1.677564,-0.315102 2.304199,-0.945312 0.626619,-0.630205 0.939929,-1.410804 0.939939,-2.341797 -1e-5,-0.888015 -0.290046,-1.620274 -0.870115,-2.196777 -0.580086,-0.57649 -1.317715,-0.864739 -2.212891,-0.864746 -0.36524,7e-6 -0.819992,0.07162 -1.364257,0.214843 l 0.214843,-1.697265 c 0.128901,0.01433 0.232743,0.02149 0.311524,0.02148 0.823561,9e-6 1.564772,-0.214834 2.223633,-0.644531 0.658846,-0.429677 0.988272,-1.092112 0.988281,-1.987305 -9e-6,-0.708972 -0.239917,-1.296211 -0.719727,-1.761719 -0.479825,-0.46548 -1.09929,-0.698227 -1.858398,-0.698242 -0.751958,1.5e-5 -1.378585,0.236342 -1.879883,0.708985 -0.501306,0.472669 -0.823571,1.181653 -0.966797,2.126953 l -1.933594,-0.34375 c 0.236327,-1.296211 0.773436,-2.300605 1.611328,-3.013184 0.837888,-0.712549 1.879879,-1.068832 3.125977,-1.068847 0.859368,1.5e-5 1.650709,0.184423 2.374023,0.553222 0.723299,0.36883 1.276523,0.871922 1.659673,1.509278 0.38312,0.637382 0.57469,1.31414 0.5747,2.030273 -1e-5,0.68035 -0.18262,1.299815 -0.54785,1.858398 -0.36524,0.558603 -0.905933,1.002613 -1.622069,1.332032 0.930979,0.214852 1.654289,0.660652 2.169919,1.337402 0.51562,0.676764 0.77343,1.523606 0.77344,2.540527 -1e-5,1.375004 -0.50131,2.54053 -1.50391,3.496582 -1.002609,0.956055 -2.270186,1.434082 -3.802731,1.434082 -1.382166,0 -2.529788,-0.411783 -3.442871,-1.235351 -0.913087,-0.823566 -1.434083,-1.890622 -1.562988,-3.201172 z"
     style=""
     id="path3847" /></g><g
   style="font-size:22px;font-style:normal;font-weight:normal;line-height:125%;letter-spacing:0px;word-spacing:0px;fill:#000000;fill-opacity:1;stroke:none;font-family:Bitstream Vera Sans"
   id="text3832"><path
     d="m 163.84375,28.609375 1.93359,-0.257813 c 0.22201,1.095707 0.59977,1.885257 1.1333,2.368653 0.53353,0.4834 1.18343,0.725099 1.94971,0.725097 0.9095,2e-6 1.67757,-0.315102 2.3042,-0.945312 0.62662,-0.630205 0.93993,-1.410804 0.93994,-2.341797 -1e-5,-0.888015 -0.29005,-1.620274 -0.87012,-2.196777 -0.58008,-0.57649 -1.31771,-0.864739 -2.21289,-0.864746 -0.36524,7e-6 -0.81999,0.07162 -1.36425,0.214843 l 0.21484,-1.697265 c 0.1289,0.01433 0.23274,0.02149 0.31152,0.02148 0.82357,9e-6 1.56478,-0.214834 2.22364,-0.644531 0.65884,-0.429677 0.98827,-1.092112 0.98828,-1.987305 -1e-5,-0.708972 -0.23992,-1.296211 -0.71973,-1.761719 -0.47982,-0.46548 -1.09929,-0.698227 -1.8584,-0.698242 -0.75196,1.5e-5 -1.37858,0.236342 -1.87988,0.708985 -0.50131,0.472669 -0.82357,1.181653 -0.9668,2.126953 l -1.93359,-0.34375 c 0.23633,-1.296211 0.77343,-2.300605 1.61133,-3.013184 0.83788,-0.712549 1.87988,-1.068832 3.12597,-1.068847 0.85937,1.5e-5 1.65071,0.184423 2.37403,0.553222 0.7233,0.36883 1.27652,0.871922 1.65967,1.509278 0.38312,0.637382 0.57469,1.31414 0.5747,2.030273 -1e-5,0.68035 -0.18262,1.299815 -0.54785,1.858398 -0.36524,0.558603 -0.90593,1.002613 -1.62207,1.332032 0.93098,0.214852 1.65429,0.660652 2.16992,1.337402 0.51562,0.676764 0.77343,1.523606 0.77344,2.540527 -1e-5,1.375004 -0.50131,2.54053 -1.50391,3.496582 -1.00261,0.956055 -2.27019,1.434082 -3.80273,1.434082 -1.38217,0 -2.52979,-0.411783 -3.44287,-1.235351 -0.91309,-0.823566 -1.43408,-1.890622 -1.56299,-3.201172 z"
     style=""
     id="path3844" /></g><g
   style="font-size:22px;font-style:normal;font-weight:normal;line-height:125%;letter-spacing:0px;word-spacing:0px;fill:#000000;fill-opacity:1;stroke:none;font-family:Bitstream Vera Sans"
   id="text3836"><path
     d="m 27.900391,32.90625 -1.933594,0 0,-12.321289 c -0.465501,0.444022 -1.076014,0.888032 -1.831543,1.332031 -0.755538,0.444021 -1.434085,0.777029 -2.035645,0.999024 l 0,-1.869141 c 1.081377,-0.508451 2.026689,-1.124336 2.835938,-1.847656 0.809239,-0.723293 1.382155,-1.425115 1.71875,-2.105469 l 1.246094,0 z"
     style=""
     id="path3850" /></g></svg>